<svg xmlns="http://www.w3.org/2000/svg" xmlns:xlink="http://www.w3.org/1999/xlink" width="1080" zoomAndPan="magnify" viewBox="0 0 810 809.999993" height="1080" preserveAspectRatio="xMidYMid meet" version="1.0"><defs><clipPath id="85ab8c8523"><path d="M 9.082031 405.839844 L 800.441406 405.839844 L 800.441406 458.679688 L 9.082031 458.679688 Z M 9.082031 405.839844 " clip-rule="nonzero"/></clipPath><clipPath id="c2fb0aaa58"><path d="M 72 279.433594 L 75 279.433594 L 75 316 L 72 316 Z M 72 279.433594 " clip-rule="nonzero"/></clipPath><clipPath id="d6f4f5ef19"><path d="M 71 279.433594 L 76 279.433594 L 76 280 L 71 280 Z M 71 279.433594 " clip-rule="nonzero"/></clipPath><clipPath id="8adfc8e2d3"><path d="M 9.082031 355 L 709 355 L 709 356 L 9.082031 356 Z M 9.082031 355 " clip-rule="nonzero"/></clipPath><clipPath id="bf0a27b2f2"><path d="M 9.082031 358 L 709 358 L 709 360 L 9.082031 360 Z M 9.082031 358 " clip-rule="nonzero"/></clipPath><clipPath id="fda7a326f3"><path d="M 9.082031 365 L 709 365 L 709 366 L 9.082031 366 Z M 9.082031 365 " clip-rule="nonzero"/></clipPath><clipPath id="4c94ed23db"><path d="M 9.082031 355 L 10 355 L 10 366 L 9.082031 366 Z M 9.082031 355 " clip-rule="nonzero"/></clipPath><clipPath id="ef635b06ce"><path d="M 9.082031 348 L 794 348 L 794 406 L 9.082031 406 Z M 9.082031 348 " clip-rule="nonzero"/></clipPath><clipPath id="8854631307"><path d="M 9.082031 395 L 784 395 L 784 406 L 9.082031 406 Z M 9.082031 395 " clip-rule="nonzero"/></clipPath><clipPath id="4bb62e5649"><path d="M 9.082031 405.839844 L 800.441406 405.839844 L 800.441406 458.679688 L 9.082031 458.679688 Z M 9.082031 405.839844 " clip-rule="nonzero"/></clipPath><clipPath id="8f3716d1f8"><path d="M 72 420.234375 L 800.441406 420.234375 L 800.441406 458.679688 L 72 458.679688 Z M 72 420.234375 " clip-rule="nonzero"/></clipPath></defs><path fill="#6e6e6e" d="M 200.519531 368.957031 L 132.71875 368.957031 L 132.71875 361.710938 L 200.519531 361.710938 L 200.519531 368.957031 " fill-opacity="1" fill-rule="nonzero"/><path fill="#6e6e6e" d="M 281.261719 368.957031 L 213.453125 368.957031 L 213.453125 361.710938 L 281.261719 361.710938 L 281.261719 368.957031 " fill-opacity="1" fill-rule="nonzero"/><path fill="#6e6e6e" d="M 365.21875 368.957031 L 297.410156 368.957031 L 297.410156 361.710938 L 365.21875 361.710938 L 365.21875 368.957031 " fill-opacity="1" fill-rule="nonzero"/><path fill="#6e6e6e" d="M 457.046875 368.957031 L 389.238281 368.957031 L 389.238281 361.710938 L 457.046875 361.710938 L 457.046875 368.957031 " fill-opacity="1" fill-rule="nonzero"/><path fill="#6e6e6e" d="M 543.730469 368.957031 L 475.921875 368.957031 L 475.921875 361.710938 L 543.730469 361.710938 L 543.730469 368.957031 " fill-opacity="1" fill-rule="nonzero"/><path fill="#6e6e6e" d="M 630.304688 368.957031 L 562.503906 368.957031 L 562.503906 361.710938 L 630.304688 361.710938 L 630.304688 368.957031 " fill-opacity="1" fill-rule="nonzero"/><path fill="#383838" d="M 315.871094 329.675781 C 315.839844 329.675781 315.804688 329.667969 315.773438 329.65625 L 212.648438 296.03125 L 212.828125 295.433594 L 315.953125 323.890625 C 316.121094 323.933594 316.214844 324.109375 316.171875 324.277344 C 316.128906 324.4375 315.953125 324.539062 315.785156 324.496094 L 225.808594 299.660156 L 315.964844 329.0625 C 316.132812 329.113281 316.222656 329.292969 316.171875 329.457031 C 316.128906 329.585938 316.003906 329.675781 315.871094 329.675781 " fill-opacity="1" fill-rule="nonzero"/><path fill="#383838" d="M 212.75 329.675781 C 212.617188 329.675781 212.492188 329.585938 212.449219 329.457031 C 212.398438 329.292969 212.488281 329.113281 212.648438 329.0625 L 302.808594 299.660156 L 212.828125 324.496094 C 212.660156 324.539062 212.492188 324.4375 212.441406 324.277344 C 212.398438 324.109375 212.5 323.933594 212.660156 323.890625 L 315.785156 295.433594 L 315.964844 296.03125 L 212.84375 329.65625 C 212.8125 329.667969 212.78125 329.675781 212.75 329.675781 " fill-opacity="1" fill-rule="nonzero"/><path fill="#a8a8a8" d="M 216.328125 368.851562 L 209.164062 368.851562 L 209.164062 331.796875 L 216.328125 331.796875 L 216.328125 368.851562 " fill-opacity="1" fill-rule="nonzero"/><path fill="#bdbdbd" d="M 217.589844 343.199219 L 207.902344 343.199219 L 207.902344 339.871094 L 217.589844 339.871094 L 217.589844 343.199219 " fill-opacity="1" fill-rule="nonzero"/><path fill="#a8a8a8" d="M 214.871094 299.832031 L 210.625 299.832031 L 210.625 292.632812 L 214.871094 292.632812 L 214.871094 299.832031 " fill-opacity="1" fill-rule="nonzero"/><path fill="#c4c4c4" d="M 217.589844 332.722656 L 207.902344 332.722656 L 207.902344 295.730469 L 217.589844 295.730469 L 217.589844 332.722656 " fill-opacity="1" fill-rule="nonzero"/><path fill="#b3b3b3" d="M 217.589844 332.722656 L 212.75 332.722656 L 212.75 295.730469 L 217.589844 295.730469 L 217.589844 332.722656 " fill-opacity="1" fill-rule="nonzero"/><path fill="#a8a8a8" d="M 319.449219 368.851562 L 312.285156 368.851562 L 312.285156 331.796875 L 319.449219 331.796875 L 319.449219 368.851562 " fill-opacity="1" fill-rule="nonzero"/><path fill="#bdbdbd" d="M 320.710938 343.199219 L 311.027344 343.199219 L 311.027344 339.871094 L 320.710938 339.871094 L 320.710938 343.199219 " fill-opacity="1" fill-rule="nonzero"/><path fill="#a8a8a8" d="M 317.996094 299.832031 L 313.75 299.832031 L 313.75 292.632812 L 317.996094 292.632812 L 317.996094 299.832031 " fill-opacity="1" fill-rule="nonzero"/><path fill="#c4c4c4" d="M 320.710938 332.722656 L 311.027344 332.722656 L 311.027344 295.730469 L 320.710938 295.730469 L 320.710938 332.722656 " fill-opacity="1" fill-rule="nonzero"/><path fill="#b3b3b3" d="M 320.710938 332.722656 L 315.871094 332.722656 L 315.871094 295.730469 L 320.710938 295.730469 L 320.710938 332.722656 " fill-opacity="1" fill-rule="nonzero"/><path fill="#c4c4c4" d="M 311.027344 332.722656 L 217.589844 332.722656 L 217.589844 328.070312 L 311.027344 328.070312 L 311.027344 332.722656 " fill-opacity="1" fill-rule="nonzero"/><path fill="#383838" d="M 531.199219 329.675781 C 531.167969 329.675781 531.136719 329.667969 531.105469 329.65625 L 427.980469 296.03125 L 428.164062 295.433594 L 531.285156 323.890625 C 531.449219 323.933594 531.546875 324.109375 531.496094 324.277344 C 531.453125 324.4375 531.285156 324.539062 531.117188 324.496094 L 441.140625 299.660156 L 531.296875 329.0625 C 531.460938 329.113281 531.554688 329.292969 531.496094 329.457031 C 531.453125 329.585938 531.328125 329.675781 531.199219 329.675781 " fill-opacity="1" fill-rule="nonzero"/><path fill="#383838" d="M 428.074219 329.675781 C 427.945312 329.675781 427.824219 329.585938 427.773438 329.457031 C 427.726562 329.292969 427.8125 329.113281 427.980469 329.0625 L 518.132812 299.660156 L 428.164062 324.496094 C 427.992188 324.539062 427.820312 324.4375 427.773438 324.277344 C 427.726562 324.109375 427.824219 323.933594 427.992188 323.890625 L 531.117188 295.433594 L 531.296875 296.03125 L 428.175781 329.65625 C 428.136719 329.667969 428.105469 329.675781 428.074219 329.675781 " fill-opacity="1" fill-rule="nonzero"/><path fill="#a8a8a8" d="M 431.660156 368.851562 L 424.496094 368.851562 L 424.496094 331.796875 L 431.660156 331.796875 L 431.660156 368.851562 " fill-opacity="1" fill-rule="nonzero"/><path fill="#bdbdbd" d="M 432.921875 343.199219 L 423.234375 343.199219 L 423.234375 339.871094 L 432.921875 339.871094 L 432.921875 343.199219 " fill-opacity="1" fill-rule="nonzero"/><path fill="#a8a8a8" d="M 430.199219 299.832031 L 425.953125 299.832031 L 425.953125 292.632812 L 430.199219 292.632812 L 430.199219 299.832031 " fill-opacity="1" fill-rule="nonzero"/><path fill="#c4c4c4" d="M 432.921875 332.722656 L 423.234375 332.722656 L 423.234375 295.730469 L 432.921875 295.730469 L 432.921875 332.722656 " fill-opacity="1" fill-rule="nonzero"/><path fill="#b3b3b3" d="M 432.921875 332.722656 L 428.074219 332.722656 L 428.074219 295.730469 L 432.921875 295.730469 L 432.921875 332.722656 " fill-opacity="1" fill-rule="nonzero"/><path fill="#a8a8a8" d="M 534.78125 368.851562 L 527.621094 368.851562 L 527.621094 331.796875 L 534.78125 331.796875 L 534.78125 368.851562 " fill-opacity="1" fill-rule="nonzero"/><path fill="#bdbdbd" d="M 536.042969 343.199219 L 526.359375 343.199219 L 526.359375 339.871094 L 536.042969 339.871094 L 536.042969 343.199219 " fill-opacity="1" fill-rule="nonzero"/><path fill="#a8a8a8" d="M 533.320312 299.832031 L 529.074219 299.832031 L 529.074219 292.632812 L 533.320312 292.632812 L 533.320312 299.832031 " fill-opacity="1" fill-rule="nonzero"/><path fill="#c4c4c4" d="M 536.042969 332.722656 L 526.359375 332.722656 L 526.359375 295.730469 L 536.042969 295.730469 L 536.042969 332.722656 " fill-opacity="1" fill-rule="nonzero"/><path fill="#b3b3b3" d="M 536.042969 332.722656 L 531.199219 332.722656 L 531.199219 295.730469 L 536.042969 295.730469 L 536.042969 332.722656 " fill-opacity="1" fill-rule="nonzero"/><path fill="#c4c4c4" d="M 526.359375 332.722656 L 432.921875 332.722656 L 432.921875 328.070312 L 526.359375 328.070312 L 526.359375 332.722656 " fill-opacity="1" fill-rule="nonzero"/><path fill="#870000" d="M 153.601562 368.445312 L 151.535156 368.445312 L 151.535156 342.6875 L 153.601562 342.6875 L 153.601562 368.445312 " fill-opacity="1" fill-rule="nonzero"/><path fill="#870000" d="M 169.472656 368.445312 L 167.402344 368.445312 L 167.402344 342.6875 L 169.472656 342.6875 L 169.472656 368.445312 " fill-opacity="1" fill-rule="nonzero"/><path fill="#870000" d="M 161.535156 368.445312 L 159.464844 368.445312 L 159.464844 342.6875 L 161.535156 342.6875 L 161.535156 368.445312 " fill-opacity="1" fill-rule="nonzero"/><path fill="#870000" d="M 168.953125 345.554688 L 152.054688 345.554688 L 152.054688 345.148438 L 168.953125 345.148438 L 168.953125 345.554688 " fill-opacity="1" fill-rule="nonzero"/><path fill="#870000" d="M 168.953125 354.257812 L 152.054688 354.257812 L 152.054688 353.859375 L 168.953125 353.859375 L 168.953125 354.257812 " fill-opacity="1" fill-rule="nonzero"/><path fill="#870000" d="M 257.40625 368.445312 L 255.339844 368.445312 L 255.339844 342.6875 L 257.40625 342.6875 L 257.40625 368.445312 " fill-opacity="1" fill-rule="nonzero"/><path fill="#870000" d="M 273.273438 368.445312 L 271.207031 368.445312 L 271.207031 342.6875 L 273.273438 342.6875 L 273.273438 368.445312 " fill-opacity="1" fill-rule="nonzero"/><path fill="#870000" d="M 265.34375 368.445312 L 263.269531 368.445312 L 263.269531 342.6875 L 265.34375 342.6875 L 265.34375 368.445312 " fill-opacity="1" fill-rule="nonzero"/><path fill="#870000" d="M 272.757812 345.554688 L 255.859375 345.554688 L 255.859375 345.148438 L 272.757812 345.148438 L 272.757812 345.554688 " fill-opacity="1" fill-rule="nonzero"/><path fill="#870000" d="M 272.757812 354.257812 L 255.859375 354.257812 L 255.859375 353.859375 L 272.757812 353.859375 L 272.757812 354.257812 " fill-opacity="1" fill-rule="nonzero"/><path fill="#870000" d="M 363.332031 368.445312 L 361.261719 368.445312 L 361.261719 342.6875 L 363.332031 342.6875 L 363.332031 368.445312 " fill-opacity="1" fill-rule="nonzero"/><path fill="#870000" d="M 379.195312 368.445312 L 377.128906 368.445312 L 377.128906 342.6875 L 379.195312 342.6875 L 379.195312 368.445312 " fill-opacity="1" fill-rule="nonzero"/><path fill="#870000" d="M 371.265625 368.445312 L 369.191406 368.445312 L 369.191406 342.6875 L 371.265625 342.6875 L 371.265625 368.445312 " fill-opacity="1" fill-rule="nonzero"/><path fill="#870000" d="M 378.675781 345.554688 L 361.777344 345.554688 L 361.777344 345.148438 L 378.675781 345.148438 L 378.675781 345.554688 " fill-opacity="1" fill-rule="nonzero"/><path fill="#870000" d="M 378.675781 354.257812 L 361.777344 354.257812 L 361.777344 353.859375 L 378.675781 353.859375 L 378.675781 354.257812 " fill-opacity="1" fill-rule="nonzero"/><path fill="#870000" d="M 472.738281 368.445312 L 470.671875 368.445312 L 470.671875 342.6875 L 472.738281 342.6875 L 472.738281 368.445312 " fill-opacity="1" fill-rule="nonzero"/><path fill="#870000" d="M 488.605469 368.445312 L 486.535156 368.445312 L 486.535156 342.6875 L 488.605469 342.6875 L 488.605469 368.445312 " fill-opacity="1" fill-rule="nonzero"/><path fill="#870000" d="M 480.667969 368.445312 L 478.601562 368.445312 L 478.601562 342.6875 L 480.667969 342.6875 L 480.667969 368.445312 " fill-opacity="1" fill-rule="nonzero"/><path fill="#870000" d="M 488.082031 345.554688 L 471.191406 345.554688 L 471.191406 345.148438 L 488.082031 345.148438 L 488.082031 345.554688 " fill-opacity="1" fill-rule="nonzero"/><path fill="#870000" d="M 488.082031 354.257812 L 471.191406 354.257812 L 471.191406 353.859375 L 488.082031 353.859375 L 488.082031 354.257812 " fill-opacity="1" fill-rule="nonzero"/><path fill="#1c1c1c" d="M 38.832031 427 L 35.023438 427 L 35.023438 418.605469 L 38.832031 418.605469 L 38.832031 427 " fill-opacity="1" fill-rule="nonzero"/><path fill="#1c1c1c" d="M 34.34375 439.058594 L 34.34375 440.433594 L 44.179688 440.433594 L 44.179688 454.476562 L 28.921875 454.476562 L 26.628906 423.191406 L 44.179688 423.191406 L 44.179688 439.058594 L 34.34375 439.058594 " fill-opacity="1" fill-rule="nonzero"/><path fill="#8f6908" d="M 78.164062 442.96875 L 55.382812 441.832031 C 54.019531 441.765625 53.003906 441.09375 53.003906 440.339844 C 53.003906 439.578125 54.019531 438.914062 55.382812 438.847656 L 78.164062 437.710938 L 78.164062 442.96875 " fill-opacity="1" fill-rule="nonzero"/><path fill="#1c1c1c" d="M 77.214844 445.199219 L 65.128906 443.101562 C 64.414062 442.976562 63.867188 441.738281 63.867188 440.339844 C 63.867188 438.933594 64.414062 437.703125 65.128906 437.578125 L 77.214844 435.472656 L 77.214844 445.199219 " fill-opacity="1" fill-rule="nonzero"/><path fill="#594105" d="M 59.230469 440.339844 C 59.230469 447.75 57.4375 453.765625 56.476562 453.765625 C 55.519531 453.765625 55.757812 447.75 55.757812 440.339844 C 55.757812 432.921875 55.519531 426.914062 56.476562 426.914062 C 57.4375 426.914062 59.230469 432.921875 59.230469 440.339844 " fill-opacity="1" fill-rule="nonzero"/><g clip-path="url(#85ab8c8523)"><path fill="#141414" d="M 800.410156 429.980469 C 799.742188 441.882812 795.328125 458.679688 745.710938 458.679688 L 145.140625 458.679688 C 100.820312 458.679688 73.019531 458.679688 73.019531 458.679688 C 73.019531 458.679688 72.542969 452.859375 70.863281 445.75 C 70.058594 442.3125 68.972656 438.589844 67.527344 435.066406 C 64.273438 427.140625 59.222656 420.277344 51.429688 420.277344 L 41.925781 420.277344 C 27.398438 420.277344 15.4375 420.277344 15.4375 420.277344 C 15.4375 420.277344 9.394531 421.441406 9.394531 405.878906 L 782.558594 405.878906 C 782.558594 405.878906 781.21875 411.738281 785.636719 413.851562 C 790.042969 415.960938 801.078125 418.074219 800.410156 429.980469 " fill-opacity="1" fill-rule="nonzero"/></g><path fill="#bdbdbd" d="M 121.796875 334.585938 L 63.84375 334.585938 L 63.84375 315.222656 L 121.796875 315.222656 L 121.796875 334.585938 " fill-opacity="1" fill-rule="nonzero"/><path fill="#800000" d="M 63.84375 367.433594 L 63.84375 301.378906 L 39.714844 301.378906 L 44.054688 305.195312 L 39.714844 367.433594 L 63.84375 367.433594 " fill-opacity="1" fill-rule="nonzero"/><path fill="#363636" d="M 72.269531 327.976562 L 67.492188 327.976562 L 67.492188 321.089844 L 72.269531 321.089844 L 72.269531 327.976562 " fill-opacity="1" fill-rule="nonzero"/><path fill="#363636" d="M 81.347656 327.976562 L 76.570312 327.976562 L 76.570312 321.089844 L 81.347656 321.089844 L 81.347656 327.976562 " fill-opacity="1" fill-rule="nonzero"/><path fill="#363636" d="M 90.421875 327.976562 L 85.644531 327.976562 L 85.644531 321.089844 L 90.421875 321.089844 L 90.421875 327.976562 " fill-opacity="1" fill-rule="nonzero"/><path fill="#363636" d="M 99.496094 327.976562 L 94.726562 327.976562 L 94.726562 321.089844 L 99.496094 321.089844 L 99.496094 327.976562 " fill-opacity="1" fill-rule="nonzero"/><path fill="#363636" d="M 108.570312 327.976562 L 103.800781 327.976562 L 103.800781 321.089844 L 108.570312 321.089844 L 108.570312 327.976562 " fill-opacity="1" fill-rule="nonzero"/><path fill="#363636" d="M 117.652344 327.976562 L 112.875 327.976562 L 112.875 321.089844 L 117.652344 321.089844 L 117.652344 327.976562 " fill-opacity="1" fill-rule="nonzero"/><path fill="#383838" d="M 55.558594 301.378906 L 54.300781 301.378906 L 54.300781 299.03125 C 54.300781 297.574219 53.121094 296.386719 51.667969 296.386719 L 49.566406 296.386719 L 49.566406 295.140625 L 51.667969 295.140625 C 53.808594 295.140625 55.558594 296.882812 55.558594 299.03125 L 55.558594 301.378906 " fill-opacity="1" fill-rule="nonzero"/><g clip-path="url(#c2fb0aaa58)"><path fill="#363636" d="M 74.28125 315.066406 L 72.644531 315.066406 L 73.136719 279.734375 L 73.792969 279.734375 L 74.28125 315.066406 " fill-opacity="1" fill-rule="nonzero"/></g><path fill="#383838" d="M 76.402344 283.242188 L 70.519531 283.242188 L 70.519531 282.3125 C 70.519531 282.183594 70.625 282.074219 70.757812 282.074219 C 70.882812 282.074219 70.988281 282.183594 70.988281 282.3125 L 70.988281 282.769531 L 75.933594 282.769531 L 75.933594 282.3125 C 75.933594 282.183594 76.039062 282.074219 76.164062 282.074219 C 76.296875 282.074219 76.402344 282.183594 76.402344 282.3125 L 76.402344 283.242188 " fill-opacity="1" fill-rule="nonzero"/><path fill="#383838" d="M 77.527344 287.949219 L 69.394531 287.949219 L 69.394531 286.730469 C 69.394531 286.597656 69.503906 286.492188 69.632812 286.492188 C 69.765625 286.492188 69.863281 286.597656 69.863281 286.730469 L 69.863281 287.472656 L 77.058594 287.472656 L 77.058594 286.730469 C 77.058594 286.597656 77.164062 286.492188 77.289062 286.492188 C 77.421875 286.492188 77.527344 286.597656 77.527344 286.730469 L 77.527344 287.949219 " fill-opacity="1" fill-rule="nonzero"/><path fill="#383838" d="M 77.527344 292.921875 L 69.394531 292.921875 L 69.394531 291.703125 C 69.394531 291.570312 69.503906 291.464844 69.632812 291.464844 C 69.765625 291.464844 69.863281 291.570312 69.863281 291.703125 L 69.863281 292.453125 L 77.058594 292.453125 L 77.058594 291.703125 C 77.058594 291.570312 77.164062 291.464844 77.289062 291.464844 C 77.421875 291.464844 77.527344 291.570312 77.527344 291.703125 L 77.527344 292.921875 " fill-opacity="1" fill-rule="nonzero"/><path fill="#383838" d="M 77.527344 297.894531 L 69.394531 297.894531 L 69.394531 296.675781 C 69.394531 296.542969 69.503906 296.4375 69.632812 296.4375 C 69.765625 296.4375 69.863281 296.542969 69.863281 296.675781 L 69.863281 297.425781 L 77.058594 297.425781 L 77.058594 296.675781 C 77.058594 296.542969 77.164062 296.4375 77.289062 296.4375 C 77.421875 296.4375 77.527344 296.542969 77.527344 296.675781 L 77.527344 297.894531 " fill-opacity="1" fill-rule="nonzero"/><g clip-path="url(#d6f4f5ef19)"><path fill="#383838" d="M 74.980469 279.964844 L 71.945312 279.964844 C 71.8125 279.964844 71.707031 279.859375 71.707031 279.734375 C 71.707031 279.601562 71.8125 279.496094 71.945312 279.496094 L 74.980469 279.496094 C 75.109375 279.496094 75.214844 279.601562 75.214844 279.734375 C 75.214844 279.859375 75.109375 279.964844 74.980469 279.964844 " fill-opacity="1" fill-rule="nonzero"/></g><path fill="#363636" d="M 82.316406 315.066406 L 81.753906 315.066406 L 81.753906 303.433594 L 82.316406 303.433594 L 82.316406 315.066406 " fill-opacity="1" fill-rule="nonzero"/><path fill="#363636" d="M 66.996094 315.066406 L 66.511719 315.066406 L 66.511719 305.003906 L 66.996094 305.003906 L 66.996094 315.066406 " fill-opacity="1" fill-rule="nonzero"/><path fill="#363636" d="M 86.582031 303.191406 L 77.484375 303.191406 L 77.484375 303.683594 L 86.582031 303.683594 L 86.582031 303.191406 " fill-opacity="1" fill-rule="nonzero"/><path fill="#363636" d="M 84.171875 315.066406 L 83.757812 315.066406 L 83.757812 306.484375 L 84.171875 306.484375 L 84.171875 315.066406 " fill-opacity="1" fill-rule="nonzero"/><path fill="#363636" d="M 87.324219 306.304688 L 80.605469 306.304688 L 80.605469 306.664062 L 87.324219 306.664062 L 87.324219 306.304688 " fill-opacity="1" fill-rule="nonzero"/><path fill="#363636" d="M 68.015625 307.234375 L 65.5 307.234375 C 65.347656 307.234375 65.230469 307.113281 65.230469 306.964844 L 65.230469 302.972656 C 65.230469 302.480469 65.628906 302.078125 66.125 302.078125 L 67.390625 302.078125 C 67.882812 302.078125 68.285156 302.480469 68.285156 302.972656 L 68.285156 306.964844 C 68.285156 307.113281 68.164062 307.234375 68.015625 307.234375 " fill-opacity="1" fill-rule="nonzero"/><path fill="#bdbdbd" d="M 67.871094 304.042969 C 67.871094 304.660156 67.371094 305.160156 66.753906 305.160156 C 66.136719 305.160156 65.636719 304.660156 65.636719 304.042969 C 65.636719 303.421875 66.136719 302.921875 66.753906 302.921875 C 67.371094 302.921875 67.871094 303.421875 67.871094 304.042969 " fill-opacity="1" fill-rule="nonzero"/><path fill="#363636" d="M 94.960938 315.066406 L 94.476562 315.066406 L 94.476562 305.003906 L 94.960938 305.003906 L 94.960938 315.066406 " fill-opacity="1" fill-rule="nonzero"/><path fill="#363636" d="M 95.980469 307.234375 L 93.464844 307.234375 C 93.3125 307.234375 93.195312 307.113281 93.195312 306.964844 L 93.195312 302.972656 C 93.195312 302.480469 93.59375 302.078125 94.089844 302.078125 L 95.355469 302.078125 C 95.847656 302.078125 96.25 302.480469 96.25 302.972656 L 96.25 306.964844 C 96.25 307.113281 96.128906 307.234375 95.980469 307.234375 " fill-opacity="1" fill-rule="nonzero"/><path fill="#bdbdbd" d="M 95.835938 304.042969 C 95.835938 304.660156 95.335938 305.160156 94.71875 305.160156 C 94.101562 305.160156 93.601562 304.660156 93.601562 304.042969 C 93.601562 303.421875 94.101562 302.921875 94.71875 302.921875 C 95.335938 302.921875 95.835938 303.421875 95.835938 304.042969 " fill-opacity="1" fill-rule="nonzero"/><path fill="#383838" d="M 121.796875 309.640625 L 63.84375 309.640625 C 63.714844 309.640625 63.605469 309.539062 63.605469 309.40625 C 63.605469 309.277344 63.714844 309.171875 63.84375 309.171875 L 121.796875 309.171875 C 121.929688 309.171875 122.027344 309.277344 122.027344 309.40625 C 122.027344 309.539062 121.929688 309.640625 121.796875 309.640625 " fill-opacity="1" fill-rule="nonzero"/><path fill="#383838" d="M 121.796875 312.46875 L 63.84375 312.46875 C 63.714844 312.46875 63.605469 312.367188 63.605469 312.238281 C 63.605469 312.105469 63.714844 312 63.84375 312 L 121.796875 312 C 121.929688 312 122.027344 312.105469 122.027344 312.238281 C 122.027344 312.367188 121.929688 312.46875 121.796875 312.46875 " fill-opacity="1" fill-rule="nonzero"/><path fill="#383838" d="M 121.796875 315.304688 L 63.84375 315.304688 C 63.714844 315.304688 63.605469 315.199219 63.605469 315.066406 C 63.605469 314.9375 63.714844 314.832031 63.84375 314.832031 L 121.796875 314.832031 C 121.929688 314.832031 122.027344 314.9375 122.027344 315.066406 C 122.027344 315.199219 121.929688 315.304688 121.796875 315.304688 " fill-opacity="1" fill-rule="nonzero"/><path fill="#383838" d="M 63.84375 315.304688 C 63.714844 315.304688 63.605469 315.199219 63.605469 315.066406 L 63.605469 309.40625 C 63.605469 309.277344 63.714844 309.171875 63.84375 309.171875 C 63.96875 309.171875 64.074219 309.277344 64.074219 309.40625 L 64.074219 315.066406 C 64.074219 315.199219 63.96875 315.304688 63.84375 315.304688 " fill-opacity="1" fill-rule="nonzero"/><path fill="#383838" d="M 121.796875 315.304688 C 121.667969 315.304688 121.558594 315.199219 121.558594 315.066406 L 121.558594 309.40625 C 121.558594 309.277344 121.667969 309.171875 121.796875 309.171875 C 121.929688 309.171875 122.027344 309.277344 122.027344 309.40625 L 122.027344 315.066406 C 122.027344 315.199219 121.929688 315.304688 121.796875 315.304688 " fill-opacity="1" fill-rule="nonzero"/><path fill="#960000" d="M 44.054688 305.195312 L 63.84375 305.195312 L 63.84375 316.316406 L 43.171875 316.316406 L 44.054688 305.195312 " fill-opacity="1" fill-rule="nonzero"/><path fill="#383838" d="M 69.277344 315.304688 C 69.144531 315.304688 69.039062 315.199219 69.039062 315.066406 L 69.039062 309.40625 C 69.039062 309.277344 69.144531 309.171875 69.277344 309.171875 C 69.402344 309.171875 69.507812 309.277344 69.507812 309.40625 L 69.507812 315.066406 C 69.507812 315.199219 69.402344 315.304688 69.277344 315.304688 " fill-opacity="1" fill-rule="nonzero"/><path fill="#383838" d="M 77.28125 315.304688 C 77.152344 315.304688 77.050781 315.199219 77.050781 315.066406 L 77.050781 309.40625 C 77.050781 309.277344 77.152344 309.171875 77.28125 309.171875 C 77.414062 309.171875 77.519531 309.277344 77.519531 309.40625 L 77.519531 315.066406 C 77.519531 315.199219 77.414062 315.304688 77.28125 315.304688 " fill-opacity="1" fill-rule="nonzero"/><path fill="#383838" d="M 85.296875 315.304688 C 85.164062 315.304688 85.058594 315.199219 85.058594 315.066406 L 85.058594 309.40625 C 85.058594 309.277344 85.164062 309.171875 85.296875 309.171875 C 85.421875 309.171875 85.527344 309.277344 85.527344 309.40625 L 85.527344 315.066406 C 85.527344 315.199219 85.421875 315.304688 85.296875 315.304688 " fill-opacity="1" fill-rule="nonzero"/><path fill="#383838" d="M 93.300781 315.304688 C 93.171875 315.304688 93.0625 315.199219 93.0625 315.066406 L 93.0625 309.40625 C 93.0625 309.277344 93.171875 309.171875 93.300781 309.171875 C 93.433594 309.171875 93.539062 309.277344 93.539062 309.40625 L 93.539062 315.066406 C 93.539062 315.199219 93.433594 315.304688 93.300781 315.304688 " fill-opacity="1" fill-rule="nonzero"/><path fill="#383838" d="M 101.3125 315.304688 C 101.183594 315.304688 101.078125 315.199219 101.078125 315.066406 L 101.078125 309.40625 C 101.078125 309.277344 101.183594 309.171875 101.3125 309.171875 C 101.445312 309.171875 101.542969 309.277344 101.542969 309.40625 L 101.542969 315.066406 C 101.542969 315.199219 101.445312 315.304688 101.3125 315.304688 " fill-opacity="1" fill-rule="nonzero"/><path fill="#383838" d="M 109.320312 315.304688 C 109.1875 315.304688 109.082031 315.199219 109.082031 315.066406 L 109.082031 309.40625 C 109.082031 309.277344 109.1875 309.171875 109.320312 309.171875 C 109.449219 309.171875 109.558594 309.277344 109.558594 309.40625 L 109.558594 315.066406 C 109.558594 315.199219 109.449219 315.304688 109.320312 315.304688 " fill-opacity="1" fill-rule="nonzero"/><path fill="#383838" d="M 117.332031 315.304688 C 117.199219 315.304688 117.09375 315.199219 117.09375 315.066406 L 117.09375 309.40625 C 117.09375 309.277344 117.199219 309.171875 117.332031 309.171875 C 117.457031 309.171875 117.5625 309.277344 117.5625 309.40625 L 117.5625 315.066406 C 117.5625 315.199219 117.457031 315.304688 117.332031 315.304688 " fill-opacity="1" fill-rule="nonzero"/><path fill="#bdbdbd" d="M 121.796875 353.945312 L 63.84375 353.945312 L 63.84375 334.585938 L 121.796875 334.585938 L 121.796875 353.945312 " fill-opacity="1" fill-rule="nonzero"/><path fill="#363636" d="M 72.269531 347.339844 L 67.492188 347.339844 L 67.492188 340.449219 L 72.269531 340.449219 L 72.269531 347.339844 " fill-opacity="1" fill-rule="nonzero"/><path fill="#363636" d="M 81.347656 347.339844 L 76.570312 347.339844 L 76.570312 340.449219 L 81.347656 340.449219 L 81.347656 347.339844 " fill-opacity="1" fill-rule="nonzero"/><path fill="#363636" d="M 90.421875 347.339844 L 85.644531 347.339844 L 85.644531 340.449219 L 90.421875 340.449219 L 90.421875 347.339844 " fill-opacity="1" fill-rule="nonzero"/><path fill="#363636" d="M 99.496094 347.339844 L 94.726562 347.339844 L 94.726562 340.449219 L 99.496094 340.449219 L 99.496094 347.339844 " fill-opacity="1" fill-rule="nonzero"/><path fill="#363636" d="M 108.570312 347.339844 L 103.800781 347.339844 L 103.800781 340.449219 L 108.570312 340.449219 L 108.570312 347.339844 " fill-opacity="1" fill-rule="nonzero"/><path fill="#363636" d="M 117.652344 347.339844 L 112.875 347.339844 L 112.875 340.449219 L 117.652344 340.449219 L 117.652344 347.339844 " fill-opacity="1" fill-rule="nonzero"/><path fill="#bdbdbd" d="M 121.796875 373.0625 L 63.84375 373.0625 L 63.84375 353.703125 L 121.796875 353.703125 L 121.796875 373.0625 " fill-opacity="1" fill-rule="nonzero"/><path fill="#363636" d="M 72.269531 366.457031 L 67.492188 366.457031 L 67.492188 359.574219 L 72.269531 359.574219 L 72.269531 366.457031 " fill-opacity="1" fill-rule="nonzero"/><path fill="#363636" d="M 81.347656 366.457031 L 76.570312 366.457031 L 76.570312 359.574219 L 81.347656 359.574219 L 81.347656 366.457031 " fill-opacity="1" fill-rule="nonzero"/><path fill="#363636" d="M 90.421875 366.457031 L 85.644531 366.457031 L 85.644531 359.574219 L 90.421875 359.574219 L 90.421875 366.457031 " fill-opacity="1" fill-rule="nonzero"/><path fill="#363636" d="M 99.496094 366.457031 L 94.726562 366.457031 L 94.726562 359.574219 L 99.496094 359.574219 L 99.496094 366.457031 " fill-opacity="1" fill-rule="nonzero"/><path fill="#363636" d="M 108.570312 366.457031 L 103.800781 366.457031 L 103.800781 359.574219 L 108.570312 359.574219 L 108.570312 366.457031 " fill-opacity="1" fill-rule="nonzero"/><path fill="#363636" d="M 117.652344 366.457031 L 112.875 366.457031 L 112.875 359.574219 L 117.652344 359.574219 L 117.652344 366.457031 " fill-opacity="1" fill-rule="nonzero"/><g clip-path="url(#8adfc8e2d3)"><path fill="#383838" d="M 707.921875 355.875 L 9.394531 355.875 C 9.21875 355.875 9.082031 355.738281 9.082031 355.5625 C 9.082031 355.394531 9.21875 355.25 9.394531 355.25 L 707.921875 355.25 C 708.09375 355.25 708.234375 355.394531 708.234375 355.5625 C 708.234375 355.738281 708.09375 355.875 707.921875 355.875 " fill-opacity="1" fill-rule="nonzero"/></g><g clip-path="url(#bf0a27b2f2)"><path fill="#383838" d="M 707.921875 359.03125 L 9.394531 359.03125 C 9.21875 359.03125 9.082031 358.886719 9.082031 358.71875 C 9.082031 358.542969 9.21875 358.398438 9.394531 358.398438 L 707.921875 358.398438 C 708.09375 358.398438 708.234375 358.542969 708.234375 358.71875 C 708.234375 358.886719 708.09375 359.03125 707.921875 359.03125 " fill-opacity="1" fill-rule="nonzero"/></g><g clip-path="url(#fda7a326f3)"><path fill="#383838" d="M 707.921875 365.972656 L 9.394531 365.972656 C 9.21875 365.972656 9.082031 365.832031 9.082031 365.660156 C 9.082031 365.484375 9.21875 365.347656 9.394531 365.347656 L 707.921875 365.347656 C 708.09375 365.347656 708.234375 365.484375 708.234375 365.660156 C 708.234375 365.832031 708.09375 365.972656 707.921875 365.972656 " fill-opacity="1" fill-rule="nonzero"/></g><g clip-path="url(#4c94ed23db)"><path fill="#383838" d="M 9.394531 365.972656 C 9.21875 365.972656 9.082031 365.832031 9.082031 365.660156 L 9.082031 355.5625 C 9.082031 355.394531 9.21875 355.25 9.394531 355.25 C 9.570312 355.25 9.707031 355.394531 9.707031 355.5625 L 9.707031 365.660156 C 9.707031 365.832031 9.570312 365.972656 9.394531 365.972656 " fill-opacity="1" fill-rule="nonzero"/></g><path fill="#383838" d="M 12.984375 365.972656 C 12.808594 365.972656 12.671875 365.832031 12.671875 365.660156 L 12.671875 355.5625 C 12.671875 355.394531 12.808594 355.25 12.984375 355.25 C 13.160156 355.25 13.296875 355.394531 13.296875 355.5625 L 13.296875 365.660156 C 13.296875 365.832031 13.160156 365.972656 12.984375 365.972656 " fill-opacity="1" fill-rule="nonzero"/><path fill="#383838" d="M 20.308594 365.972656 C 20.136719 365.972656 19.992188 365.832031 19.992188 365.660156 L 19.992188 355.5625 C 19.992188 355.394531 20.136719 355.25 20.308594 355.25 C 20.480469 355.25 20.621094 355.394531 20.621094 355.5625 L 20.621094 365.660156 C 20.621094 365.832031 20.480469 365.972656 20.308594 365.972656 " fill-opacity="1" fill-rule="nonzero"/><path fill="#383838" d="M 27.628906 365.972656 C 27.460938 365.972656 27.316406 365.832031 27.316406 365.660156 L 27.316406 355.5625 C 27.316406 355.394531 27.460938 355.25 27.628906 355.25 C 27.804688 355.25 27.949219 355.394531 27.949219 355.5625 L 27.949219 365.660156 C 27.949219 365.832031 27.804688 365.972656 27.628906 365.972656 " fill-opacity="1" fill-rule="nonzero"/><path fill="#383838" d="M 34.953125 365.972656 C 34.785156 365.972656 34.644531 365.832031 34.644531 365.660156 L 34.644531 355.5625 C 34.644531 355.394531 34.785156 355.25 34.953125 355.25 C 35.128906 355.25 35.265625 355.394531 35.265625 355.5625 L 35.265625 365.660156 C 35.265625 365.832031 35.128906 365.972656 34.953125 365.972656 " fill-opacity="1" fill-rule="nonzero"/><path fill="#383838" d="M 42.28125 365.972656 C 42.105469 365.972656 41.96875 365.832031 41.96875 365.660156 L 41.96875 355.5625 C 41.96875 355.394531 42.105469 355.25 42.28125 355.25 C 42.453125 355.25 42.59375 355.394531 42.59375 355.5625 L 42.59375 365.660156 C 42.59375 365.832031 42.453125 365.972656 42.28125 365.972656 " fill-opacity="1" fill-rule="nonzero"/><path fill="#383838" d="M 49.605469 365.972656 C 49.429688 365.972656 49.292969 365.832031 49.292969 365.660156 L 49.292969 355.5625 C 49.292969 355.394531 49.429688 355.25 49.605469 355.25 C 49.78125 355.25 49.917969 355.394531 49.917969 355.5625 L 49.917969 365.660156 C 49.917969 365.832031 49.78125 365.972656 49.605469 365.972656 " fill-opacity="1" fill-rule="nonzero"/><path fill="#383838" d="M 56.929688 365.972656 C 56.757812 365.972656 56.617188 365.832031 56.617188 365.660156 L 56.617188 355.5625 C 56.617188 355.394531 56.757812 355.25 56.929688 355.25 C 57.097656 355.25 57.242188 355.394531 57.242188 355.5625 L 57.242188 365.660156 C 57.242188 365.832031 57.097656 365.972656 56.929688 365.972656 " fill-opacity="1" fill-rule="nonzero"/><path fill="#383838" d="M 64.257812 365.972656 C 64.082031 365.972656 63.9375 365.832031 63.9375 365.660156 L 63.9375 355.5625 C 63.9375 355.394531 64.082031 355.25 64.257812 355.25 C 64.425781 355.25 64.570312 355.394531 64.570312 355.5625 L 64.570312 365.660156 C 64.570312 365.832031 64.425781 365.972656 64.257812 365.972656 " fill-opacity="1" fill-rule="nonzero"/><path fill="#383838" d="M 71.574219 365.972656 C 71.40625 365.972656 71.261719 365.832031 71.261719 365.660156 L 71.261719 355.5625 C 71.261719 355.394531 71.40625 355.25 71.574219 355.25 C 71.75 355.25 71.886719 355.394531 71.886719 355.5625 L 71.886719 365.660156 C 71.886719 365.832031 71.75 365.972656 71.574219 365.972656 " fill-opacity="1" fill-rule="nonzero"/><path fill="#383838" d="M 78.902344 365.972656 C 78.730469 365.972656 78.589844 365.832031 78.589844 365.660156 L 78.589844 355.5625 C 78.589844 355.394531 78.730469 355.25 78.902344 355.25 C 79.074219 355.25 79.210938 355.394531 79.210938 355.5625 L 79.210938 365.660156 C 79.210938 365.832031 79.074219 365.972656 78.902344 365.972656 " fill-opacity="1" fill-rule="nonzero"/><path fill="#383838" d="M 86.226562 365.972656 C 86.050781 365.972656 85.914062 365.832031 85.914062 365.660156 L 85.914062 355.5625 C 85.914062 355.394531 86.050781 355.25 86.226562 355.25 C 86.402344 355.25 86.539062 355.394531 86.539062 355.5625 L 86.539062 365.660156 C 86.539062 365.832031 86.402344 365.972656 86.226562 365.972656 " fill-opacity="1" fill-rule="nonzero"/><path fill="#383838" d="M 93.550781 365.972656 C 93.375 365.972656 93.238281 365.832031 93.238281 365.660156 L 93.238281 355.5625 C 93.238281 355.394531 93.375 355.25 93.550781 355.25 C 93.726562 355.25 93.863281 355.394531 93.863281 355.5625 L 93.863281 365.660156 C 93.863281 365.832031 93.726562 365.972656 93.550781 365.972656 " fill-opacity="1" fill-rule="nonzero"/><path fill="#383838" d="M 100.875 365.972656 C 100.703125 365.972656 100.558594 365.832031 100.558594 365.660156 L 100.558594 355.5625 C 100.558594 355.394531 100.703125 355.25 100.875 355.25 C 101.046875 355.25 101.1875 355.394531 101.1875 355.5625 L 101.1875 365.660156 C 101.1875 365.832031 101.046875 365.972656 100.875 365.972656 " fill-opacity="1" fill-rule="nonzero"/><path fill="#383838" d="M 108.195312 365.972656 C 108.027344 365.972656 107.882812 365.832031 107.882812 365.660156 L 107.882812 355.5625 C 107.882812 355.394531 108.027344 355.25 108.195312 355.25 C 108.371094 355.25 108.515625 355.394531 108.515625 355.5625 L 108.515625 365.660156 C 108.515625 365.832031 108.371094 365.972656 108.195312 365.972656 " fill-opacity="1" fill-rule="nonzero"/><path fill="#383838" d="M 115.519531 365.972656 C 115.347656 365.972656 115.207031 365.832031 115.207031 365.660156 L 115.207031 355.5625 C 115.207031 355.394531 115.347656 355.25 115.519531 355.25 C 115.695312 355.25 115.839844 355.394531 115.839844 355.5625 L 115.839844 365.660156 C 115.839844 365.832031 115.695312 365.972656 115.519531 365.972656 " fill-opacity="1" fill-rule="nonzero"/><path fill="#383838" d="M 122.847656 365.972656 C 122.671875 365.972656 122.535156 365.832031 122.535156 365.660156 L 122.535156 355.5625 C 122.535156 355.394531 122.671875 355.25 122.847656 355.25 C 123.019531 355.25 123.160156 355.394531 123.160156 355.5625 L 123.160156 365.660156 C 123.160156 365.832031 123.019531 365.972656 122.847656 365.972656 " fill-opacity="1" fill-rule="nonzero"/><path fill="#383838" d="M 130.171875 365.972656 C 129.996094 365.972656 129.859375 365.832031 129.859375 365.660156 L 129.859375 355.5625 C 129.859375 355.394531 129.996094 355.25 130.171875 355.25 C 130.347656 355.25 130.484375 355.394531 130.484375 355.5625 L 130.484375 365.660156 C 130.484375 365.832031 130.347656 365.972656 130.171875 365.972656 " fill-opacity="1" fill-rule="nonzero"/><path fill="#383838" d="M 137.496094 365.972656 C 137.320312 365.972656 137.183594 365.832031 137.183594 365.660156 L 137.183594 355.5625 C 137.183594 355.394531 137.320312 355.25 137.496094 355.25 C 137.664062 355.25 137.808594 355.394531 137.808594 355.5625 L 137.808594 365.660156 C 137.808594 365.832031 137.664062 365.972656 137.496094 365.972656 " fill-opacity="1" fill-rule="nonzero"/><path fill="#383838" d="M 144.824219 365.972656 C 144.648438 365.972656 144.511719 365.832031 144.511719 365.660156 L 144.511719 355.5625 C 144.511719 355.394531 144.648438 355.25 144.824219 355.25 C 144.992188 355.25 145.132812 355.394531 145.132812 355.5625 L 145.132812 365.660156 C 145.132812 365.832031 144.992188 365.972656 144.824219 365.972656 " fill-opacity="1" fill-rule="nonzero"/><path fill="#383838" d="M 152.140625 365.972656 C 151.972656 365.972656 151.828125 365.832031 151.828125 365.660156 L 151.828125 355.5625 C 151.828125 355.394531 151.972656 355.25 152.140625 355.25 C 152.316406 355.25 152.453125 355.394531 152.453125 355.5625 L 152.453125 365.660156 C 152.453125 365.832031 152.316406 365.972656 152.140625 365.972656 " fill-opacity="1" fill-rule="nonzero"/><path fill="#383838" d="M 159.464844 365.972656 C 159.296875 365.972656 159.15625 365.832031 159.15625 365.660156 L 159.15625 355.5625 C 159.15625 355.394531 159.296875 355.25 159.464844 355.25 C 159.640625 355.25 159.785156 355.394531 159.785156 355.5625 L 159.785156 365.660156 C 159.785156 365.832031 159.640625 365.972656 159.464844 365.972656 " fill-opacity="1" fill-rule="nonzero"/><path fill="#383838" d="M 166.792969 365.972656 C 166.617188 365.972656 166.480469 365.832031 166.480469 365.660156 L 166.480469 355.5625 C 166.480469 355.394531 166.617188 355.25 166.792969 355.25 C 166.96875 355.25 167.105469 355.394531 167.105469 355.5625 L 167.105469 365.660156 C 167.105469 365.832031 166.96875 365.972656 166.792969 365.972656 " fill-opacity="1" fill-rule="nonzero"/><path fill="#383838" d="M 174.117188 365.972656 C 173.941406 365.972656 173.804688 365.832031 173.804688 365.660156 L 173.804688 355.5625 C 173.804688 355.394531 173.941406 355.25 174.117188 355.25 C 174.292969 355.25 174.429688 355.394531 174.429688 355.5625 L 174.429688 365.660156 C 174.429688 365.832031 174.292969 365.972656 174.117188 365.972656 " fill-opacity="1" fill-rule="nonzero"/><path fill="#383838" d="M 181.441406 365.972656 C 181.269531 365.972656 181.125 365.832031 181.125 365.660156 L 181.125 355.5625 C 181.125 355.394531 181.269531 355.25 181.441406 355.25 C 181.617188 355.25 181.753906 355.394531 181.753906 355.5625 L 181.753906 365.660156 C 181.753906 365.832031 181.617188 365.972656 181.441406 365.972656 " fill-opacity="1" fill-rule="nonzero"/><path fill="#383838" d="M 188.769531 365.972656 C 188.59375 365.972656 188.449219 365.832031 188.449219 365.660156 L 188.449219 355.5625 C 188.449219 355.394531 188.59375 355.25 188.769531 355.25 C 188.9375 355.25 189.082031 355.394531 189.082031 355.5625 L 189.082031 365.660156 C 189.082031 365.832031 188.9375 365.972656 188.769531 365.972656 " fill-opacity="1" fill-rule="nonzero"/><path fill="#383838" d="M 196.085938 365.972656 C 195.917969 365.972656 195.773438 365.832031 195.773438 365.660156 L 195.773438 355.5625 C 195.773438 355.394531 195.917969 355.25 196.085938 355.25 C 196.261719 355.25 196.40625 355.394531 196.40625 355.5625 L 196.40625 365.660156 C 196.40625 365.832031 196.261719 365.972656 196.085938 365.972656 " fill-opacity="1" fill-rule="nonzero"/><path fill="#383838" d="M 203.414062 365.972656 C 203.238281 365.972656 203.101562 365.832031 203.101562 365.660156 L 203.101562 355.5625 C 203.101562 355.394531 203.238281 355.25 203.414062 355.25 C 203.585938 355.25 203.726562 355.394531 203.726562 355.5625 L 203.726562 365.660156 C 203.726562 365.832031 203.585938 365.972656 203.414062 365.972656 " fill-opacity="1" fill-rule="nonzero"/><path fill="#383838" d="M 210.738281 365.972656 C 210.5625 365.972656 210.425781 365.832031 210.425781 365.660156 L 210.425781 355.5625 C 210.425781 355.394531 210.5625 355.25 210.738281 355.25 C 210.914062 355.25 211.050781 355.394531 211.050781 355.5625 L 211.050781 365.660156 C 211.050781 365.832031 210.914062 365.972656 210.738281 365.972656 " fill-opacity="1" fill-rule="nonzero"/><path fill="#383838" d="M 218.0625 365.972656 C 217.886719 365.972656 217.75 365.832031 217.75 365.660156 L 217.75 355.5625 C 217.75 355.394531 217.886719 355.25 218.0625 355.25 C 218.230469 355.25 218.375 355.394531 218.375 355.5625 L 218.375 365.660156 C 218.375 365.832031 218.230469 365.972656 218.0625 365.972656 " fill-opacity="1" fill-rule="nonzero"/><path fill="#383838" d="M 225.386719 365.972656 C 225.214844 365.972656 225.078125 365.832031 225.078125 365.660156 L 225.078125 355.5625 C 225.078125 355.394531 225.214844 355.25 225.386719 355.25 C 225.558594 355.25 225.699219 355.394531 225.699219 355.5625 L 225.699219 365.660156 C 225.699219 365.832031 225.558594 365.972656 225.386719 365.972656 " fill-opacity="1" fill-rule="nonzero"/><path fill="#383838" d="M 232.714844 365.972656 C 232.539062 365.972656 232.394531 365.832031 232.394531 365.660156 L 232.394531 355.5625 C 232.394531 355.394531 232.539062 355.25 232.714844 355.25 C 232.882812 355.25 233.019531 355.394531 233.019531 355.5625 L 233.019531 365.660156 C 233.019531 365.832031 232.882812 365.972656 232.714844 365.972656 " fill-opacity="1" fill-rule="nonzero"/><path fill="#383838" d="M 240.03125 365.972656 C 239.863281 365.972656 239.71875 365.832031 239.71875 365.660156 L 239.71875 355.5625 C 239.71875 355.394531 239.863281 355.25 240.03125 355.25 C 240.207031 355.25 240.34375 355.394531 240.34375 355.5625 L 240.34375 365.660156 C 240.34375 365.832031 240.207031 365.972656 240.03125 365.972656 " fill-opacity="1" fill-rule="nonzero"/><path fill="#383838" d="M 247.359375 365.972656 C 247.191406 365.972656 247.046875 365.832031 247.046875 365.660156 L 247.046875 355.5625 C 247.046875 355.394531 247.191406 355.25 247.359375 355.25 C 247.53125 355.25 247.671875 355.394531 247.671875 355.5625 L 247.671875 365.660156 C 247.671875 365.832031 247.53125 365.972656 247.359375 365.972656 " fill-opacity="1" fill-rule="nonzero"/><path fill="#383838" d="M 254.683594 365.972656 C 254.507812 365.972656 254.371094 365.832031 254.371094 365.660156 L 254.371094 355.5625 C 254.371094 355.394531 254.507812 355.25 254.683594 355.25 C 254.851562 355.25 254.996094 355.394531 254.996094 355.5625 L 254.996094 365.660156 C 254.996094 365.832031 254.851562 365.972656 254.683594 365.972656 " fill-opacity="1" fill-rule="nonzero"/><path fill="#383838" d="M 262.007812 365.972656 C 261.835938 365.972656 261.695312 365.832031 261.695312 365.660156 L 261.695312 355.5625 C 261.695312 355.394531 261.835938 355.25 262.007812 355.25 C 262.175781 355.25 262.320312 355.394531 262.320312 355.5625 L 262.320312 365.660156 C 262.320312 365.832031 262.175781 365.972656 262.007812 365.972656 " fill-opacity="1" fill-rule="nonzero"/><path fill="#383838" d="M 269.328125 365.972656 C 269.160156 365.972656 269.023438 365.832031 269.023438 365.660156 L 269.023438 355.5625 C 269.023438 355.394531 269.160156 355.25 269.328125 355.25 C 269.503906 355.25 269.644531 355.394531 269.644531 355.5625 L 269.644531 365.660156 C 269.644531 365.832031 269.503906 365.972656 269.328125 365.972656 " fill-opacity="1" fill-rule="nonzero"/><path fill="#383838" d="M 276.652344 365.972656 C 276.484375 365.972656 276.339844 365.832031 276.339844 365.660156 L 276.339844 355.5625 C 276.339844 355.394531 276.484375 355.25 276.652344 355.25 C 276.828125 355.25 276.964844 355.394531 276.964844 355.5625 L 276.964844 365.660156 C 276.964844 365.832031 276.828125 365.972656 276.652344 365.972656 " fill-opacity="1" fill-rule="nonzero"/><path fill="#383838" d="M 283.980469 365.972656 C 283.808594 365.972656 283.667969 365.832031 283.667969 365.660156 L 283.667969 355.5625 C 283.667969 355.394531 283.808594 355.25 283.980469 355.25 C 284.152344 355.25 284.289062 355.394531 284.289062 355.5625 L 284.289062 365.660156 C 284.289062 365.832031 284.152344 365.972656 283.980469 365.972656 " fill-opacity="1" fill-rule="nonzero"/><path fill="#383838" d="M 291.304688 365.972656 C 291.128906 365.972656 290.992188 365.832031 290.992188 365.660156 L 290.992188 355.5625 C 290.992188 355.394531 291.128906 355.25 291.304688 355.25 C 291.480469 355.25 291.617188 355.394531 291.617188 355.5625 L 291.617188 365.660156 C 291.617188 365.832031 291.480469 365.972656 291.304688 365.972656 " fill-opacity="1" fill-rule="nonzero"/><path fill="#383838" d="M 298.628906 365.972656 C 298.453125 365.972656 298.316406 365.832031 298.316406 365.660156 L 298.316406 355.5625 C 298.316406 355.394531 298.453125 355.25 298.628906 355.25 C 298.804688 355.25 298.941406 355.394531 298.941406 355.5625 L 298.941406 365.660156 C 298.941406 365.832031 298.804688 365.972656 298.628906 365.972656 " fill-opacity="1" fill-rule="nonzero"/><path fill="#383838" d="M 305.953125 365.972656 C 305.78125 365.972656 305.636719 365.832031 305.636719 365.660156 L 305.636719 355.5625 C 305.636719 355.394531 305.78125 355.25 305.953125 355.25 C 306.128906 355.25 306.265625 355.394531 306.265625 355.5625 L 306.265625 365.660156 C 306.265625 365.832031 306.128906 365.972656 305.953125 365.972656 " fill-opacity="1" fill-rule="nonzero"/><path fill="#383838" d="M 313.273438 365.972656 C 313.105469 365.972656 312.960938 365.832031 312.960938 365.660156 L 312.960938 355.5625 C 312.960938 355.394531 313.105469 355.25 313.273438 355.25 C 313.449219 355.25 313.59375 355.394531 313.59375 355.5625 L 313.59375 365.660156 C 313.59375 365.832031 313.449219 365.972656 313.273438 365.972656 " fill-opacity="1" fill-rule="nonzero"/><path fill="#383838" d="M 320.597656 365.972656 C 320.429688 365.972656 320.285156 365.832031 320.285156 365.660156 L 320.285156 355.5625 C 320.285156 355.394531 320.429688 355.25 320.597656 355.25 C 320.773438 355.25 320.917969 355.394531 320.917969 355.5625 L 320.917969 365.660156 C 320.917969 365.832031 320.773438 365.972656 320.597656 365.972656 " fill-opacity="1" fill-rule="nonzero"/><path fill="#383838" d="M 327.925781 365.972656 C 327.75 365.972656 327.613281 365.832031 327.613281 365.660156 L 327.613281 355.5625 C 327.613281 355.394531 327.75 355.25 327.925781 355.25 C 328.097656 355.25 328.238281 355.394531 328.238281 355.5625 L 328.238281 365.660156 C 328.238281 365.832031 328.097656 365.972656 327.925781 365.972656 " fill-opacity="1" fill-rule="nonzero"/><path fill="#383838" d="M 335.25 365.972656 C 335.074219 365.972656 334.9375 365.832031 334.9375 365.660156 L 334.9375 355.5625 C 334.9375 355.394531 335.074219 355.25 335.25 355.25 C 335.425781 355.25 335.5625 355.394531 335.5625 355.5625 L 335.5625 365.660156 C 335.5625 365.832031 335.425781 365.972656 335.25 365.972656 " fill-opacity="1" fill-rule="nonzero"/><path fill="#383838" d="M 342.574219 365.972656 C 342.398438 365.972656 342.261719 365.832031 342.261719 365.660156 L 342.261719 355.5625 C 342.261719 355.394531 342.398438 355.25 342.574219 355.25 C 342.75 355.25 342.886719 355.394531 342.886719 355.5625 L 342.886719 365.660156 C 342.886719 365.832031 342.75 365.972656 342.574219 365.972656 " fill-opacity="1" fill-rule="nonzero"/><path fill="#383838" d="M 349.898438 365.972656 C 349.726562 365.972656 349.582031 365.832031 349.582031 365.660156 L 349.582031 355.5625 C 349.582031 355.394531 349.726562 355.25 349.898438 355.25 C 350.070312 355.25 350.210938 355.394531 350.210938 355.5625 L 350.210938 365.660156 C 350.210938 365.832031 350.070312 365.972656 349.898438 365.972656 " fill-opacity="1" fill-rule="nonzero"/><path fill="#383838" d="M 357.226562 365.972656 C 357.050781 365.972656 356.90625 365.832031 356.90625 365.660156 L 356.90625 355.5625 C 356.90625 355.394531 357.050781 355.25 357.226562 355.25 C 357.394531 355.25 357.539062 355.394531 357.539062 355.5625 L 357.539062 365.660156 C 357.539062 365.832031 357.394531 365.972656 357.226562 365.972656 " fill-opacity="1" fill-rule="nonzero"/><path fill="#383838" d="M 364.542969 365.972656 C 364.371094 365.972656 364.234375 365.832031 364.234375 365.660156 L 364.234375 355.5625 C 364.234375 355.394531 364.371094 355.25 364.542969 355.25 C 364.71875 355.25 364.855469 355.394531 364.855469 355.5625 L 364.855469 365.660156 C 364.855469 365.832031 364.71875 365.972656 364.542969 365.972656 " fill-opacity="1" fill-rule="nonzero"/><path fill="#383838" d="M 371.871094 365.972656 C 371.695312 365.972656 371.558594 365.832031 371.558594 365.660156 L 371.558594 355.5625 C 371.558594 355.394531 371.695312 355.25 371.871094 355.25 C 372.046875 355.25 372.183594 355.394531 372.183594 355.5625 L 372.183594 365.660156 C 372.183594 365.832031 372.046875 365.972656 371.871094 365.972656 " fill-opacity="1" fill-rule="nonzero"/><path fill="#383838" d="M 379.195312 365.972656 C 379.019531 365.972656 378.882812 365.832031 378.882812 365.660156 L 378.882812 355.5625 C 378.882812 355.394531 379.019531 355.25 379.195312 355.25 C 379.363281 355.25 379.507812 355.394531 379.507812 355.5625 L 379.507812 365.660156 C 379.507812 365.832031 379.363281 365.972656 379.195312 365.972656 " fill-opacity="1" fill-rule="nonzero"/><path fill="#383838" d="M 386.519531 365.972656 C 386.347656 365.972656 386.207031 365.832031 386.207031 365.660156 L 386.207031 355.5625 C 386.207031 355.394531 386.347656 355.25 386.519531 355.25 C 386.6875 355.25 386.832031 355.394531 386.832031 355.5625 L 386.832031 365.660156 C 386.832031 365.832031 386.6875 365.972656 386.519531 365.972656 " fill-opacity="1" fill-rule="nonzero"/><path fill="#383838" d="M 393.847656 365.972656 C 393.671875 365.972656 393.535156 365.832031 393.535156 365.660156 L 393.535156 355.5625 C 393.535156 355.394531 393.671875 355.25 393.847656 355.25 C 394.015625 355.25 394.160156 355.394531 394.160156 355.5625 L 394.160156 365.660156 C 394.160156 365.832031 394.015625 365.972656 393.847656 365.972656 " fill-opacity="1" fill-rule="nonzero"/><path fill="#383838" d="M 401.171875 365.972656 C 400.996094 365.972656 400.851562 365.832031 400.851562 365.660156 L 400.851562 355.5625 C 400.851562 355.394531 400.996094 355.25 401.171875 355.25 C 401.339844 355.25 401.476562 355.394531 401.476562 355.5625 L 401.476562 365.660156 C 401.476562 365.832031 401.339844 365.972656 401.171875 365.972656 " fill-opacity="1" fill-rule="nonzero"/><path fill="#383838" d="M 408.492188 365.972656 C 408.320312 365.972656 408.179688 365.832031 408.179688 365.660156 L 408.179688 355.5625 C 408.179688 355.394531 408.320312 355.25 408.492188 355.25 C 408.664062 355.25 408.804688 355.394531 408.804688 355.5625 L 408.804688 365.660156 C 408.804688 365.832031 408.664062 365.972656 408.492188 365.972656 " fill-opacity="1" fill-rule="nonzero"/><path fill="#383838" d="M 415.816406 365.972656 C 415.648438 365.972656 415.503906 365.832031 415.503906 365.660156 L 415.503906 355.5625 C 415.503906 355.394531 415.648438 355.25 415.816406 355.25 C 415.992188 355.25 416.128906 355.394531 416.128906 355.5625 L 416.128906 365.660156 C 416.128906 365.832031 415.992188 365.972656 415.816406 365.972656 " fill-opacity="1" fill-rule="nonzero"/><path fill="#383838" d="M 423.140625 365.972656 C 422.964844 365.972656 422.828125 365.832031 422.828125 365.660156 L 422.828125 355.5625 C 422.828125 355.394531 422.964844 355.25 423.140625 355.25 C 423.316406 355.25 423.453125 355.394531 423.453125 355.5625 L 423.453125 365.660156 C 423.453125 365.832031 423.316406 365.972656 423.140625 365.972656 " fill-opacity="1" fill-rule="nonzero"/><path fill="#383838" d="M 430.464844 365.972656 C 430.292969 365.972656 430.152344 365.832031 430.152344 365.660156 L 430.152344 355.5625 C 430.152344 355.394531 430.292969 355.25 430.464844 355.25 C 430.640625 355.25 430.777344 355.394531 430.777344 355.5625 L 430.777344 365.660156 C 430.777344 365.832031 430.640625 365.972656 430.464844 365.972656 " fill-opacity="1" fill-rule="nonzero"/><path fill="#383838" d="M 437.679688 365.972656 C 437.503906 365.972656 437.367188 365.832031 437.367188 365.660156 L 437.367188 355.5625 C 437.367188 355.394531 437.503906 355.25 437.679688 355.25 C 437.855469 355.25 437.992188 355.394531 437.992188 355.5625 L 437.992188 365.660156 C 437.992188 365.832031 437.855469 365.972656 437.679688 365.972656 " fill-opacity="1" fill-rule="nonzero"/><path fill="#383838" d="M 444.890625 365.972656 C 444.71875 365.972656 444.582031 365.832031 444.582031 365.660156 L 444.582031 355.5625 C 444.582031 355.394531 444.71875 355.25 444.890625 355.25 C 445.066406 355.25 445.210938 355.394531 445.210938 355.5625 L 445.210938 365.660156 C 445.210938 365.832031 445.066406 365.972656 444.890625 365.972656 " fill-opacity="1" fill-rule="nonzero"/><path fill="#383838" d="M 452.105469 365.972656 C 451.9375 365.972656 451.800781 365.832031 451.800781 365.660156 L 451.800781 355.5625 C 451.800781 355.394531 451.9375 355.25 452.105469 355.25 C 452.28125 355.25 452.421875 355.394531 452.421875 355.5625 L 452.421875 365.660156 C 452.421875 365.832031 452.28125 365.972656 452.105469 365.972656 " fill-opacity="1" fill-rule="nonzero"/><path fill="#383838" d="M 459.324219 365.972656 C 459.148438 365.972656 459.011719 365.832031 459.011719 365.660156 L 459.011719 355.5625 C 459.011719 355.394531 459.148438 355.25 459.324219 355.25 C 459.492188 355.25 459.636719 355.394531 459.636719 355.5625 L 459.636719 365.660156 C 459.636719 365.832031 459.492188 365.972656 459.324219 365.972656 " fill-opacity="1" fill-rule="nonzero"/><path fill="#383838" d="M 466.539062 365.972656 C 466.363281 365.972656 466.226562 365.832031 466.226562 365.660156 L 466.226562 355.5625 C 466.226562 355.394531 466.363281 355.25 466.539062 355.25 C 466.710938 355.25 466.851562 355.394531 466.851562 355.5625 L 466.851562 365.660156 C 466.851562 365.832031 466.710938 365.972656 466.539062 365.972656 " fill-opacity="1" fill-rule="nonzero"/><path fill="#383838" d="M 473.75 365.972656 C 473.582031 365.972656 473.4375 365.832031 473.4375 365.660156 L 473.4375 355.5625 C 473.4375 355.394531 473.582031 355.25 473.75 355.25 C 473.925781 355.25 474.070312 355.394531 474.070312 355.5625 L 474.070312 365.660156 C 474.070312 365.832031 473.925781 365.972656 473.75 365.972656 " fill-opacity="1" fill-rule="nonzero"/><path fill="#383838" d="M 480.96875 365.972656 C 480.792969 365.972656 480.65625 365.832031 480.65625 365.660156 L 480.65625 355.5625 C 480.65625 355.394531 480.792969 355.25 480.96875 355.25 C 481.136719 355.25 481.28125 355.394531 481.28125 355.5625 L 481.28125 365.660156 C 481.28125 365.832031 481.136719 365.972656 480.96875 365.972656 " fill-opacity="1" fill-rule="nonzero"/><path fill="#383838" d="M 488.183594 365.972656 C 488.007812 365.972656 487.871094 365.832031 487.871094 365.660156 L 487.871094 355.5625 C 487.871094 355.394531 488.007812 355.25 488.183594 355.25 C 488.355469 355.25 488.496094 355.394531 488.496094 355.5625 L 488.496094 365.660156 C 488.496094 365.832031 488.355469 365.972656 488.183594 365.972656 " fill-opacity="1" fill-rule="nonzero"/><path fill="#383838" d="M 495.394531 365.972656 C 495.226562 365.972656 495.082031 365.832031 495.082031 365.660156 L 495.082031 355.5625 C 495.082031 355.394531 495.226562 355.25 495.394531 355.25 C 495.570312 355.25 495.714844 355.394531 495.714844 355.5625 L 495.714844 365.660156 C 495.714844 365.832031 495.570312 365.972656 495.394531 365.972656 " fill-opacity="1" fill-rule="nonzero"/><path fill="#383838" d="M 502.613281 365.972656 C 502.441406 365.972656 502.300781 365.832031 502.300781 365.660156 L 502.300781 355.5625 C 502.300781 355.394531 502.441406 355.25 502.613281 355.25 C 502.78125 355.25 502.925781 355.394531 502.925781 355.5625 L 502.925781 365.660156 C 502.925781 365.832031 502.78125 365.972656 502.613281 365.972656 " fill-opacity="1" fill-rule="nonzero"/><path fill="#383838" d="M 509.828125 365.972656 C 509.652344 365.972656 509.515625 365.832031 509.515625 365.660156 L 509.515625 355.5625 C 509.515625 355.394531 509.652344 355.25 509.828125 355.25 C 510.003906 355.25 510.140625 355.394531 510.140625 355.5625 L 510.140625 365.660156 C 510.140625 365.832031 510.003906 365.972656 509.828125 365.972656 " fill-opacity="1" fill-rule="nonzero"/><path fill="#383838" d="M 517.039062 365.972656 C 516.867188 365.972656 516.726562 365.832031 516.726562 365.660156 L 516.726562 355.5625 C 516.726562 355.394531 516.867188 355.25 517.039062 355.25 C 517.214844 355.25 517.359375 355.394531 517.359375 355.5625 L 517.359375 365.660156 C 517.359375 365.832031 517.214844 365.972656 517.039062 365.972656 " fill-opacity="1" fill-rule="nonzero"/><path fill="#383838" d="M 524.253906 365.972656 C 524.085938 365.972656 523.945312 365.832031 523.945312 365.660156 L 523.945312 355.5625 C 523.945312 355.394531 524.085938 355.25 524.253906 355.25 C 524.429688 355.25 524.570312 355.394531 524.570312 355.5625 L 524.570312 365.660156 C 524.570312 365.832031 524.429688 365.972656 524.253906 365.972656 " fill-opacity="1" fill-rule="nonzero"/><path fill="#383838" d="M 531.472656 365.972656 C 531.296875 365.972656 531.160156 365.832031 531.160156 365.660156 L 531.160156 355.5625 C 531.160156 355.394531 531.296875 355.25 531.472656 355.25 C 531.640625 355.25 531.785156 355.394531 531.785156 355.5625 L 531.785156 365.660156 C 531.785156 365.832031 531.640625 365.972656 531.472656 365.972656 " fill-opacity="1" fill-rule="nonzero"/><path fill="#383838" d="M 538.683594 365.972656 C 538.511719 365.972656 538.375 365.832031 538.375 365.660156 L 538.375 355.5625 C 538.375 355.394531 538.511719 355.25 538.683594 355.25 C 538.859375 355.25 538.996094 355.394531 538.996094 355.5625 L 538.996094 365.660156 C 538.996094 365.832031 538.859375 365.972656 538.683594 365.972656 " fill-opacity="1" fill-rule="nonzero"/><path fill="#383838" d="M 545.898438 365.972656 C 545.730469 365.972656 545.585938 365.832031 545.585938 365.660156 L 545.585938 355.5625 C 545.585938 355.394531 545.730469 355.25 545.898438 355.25 C 546.074219 355.25 546.214844 355.394531 546.214844 355.5625 L 546.214844 365.660156 C 546.214844 365.832031 546.074219 365.972656 545.898438 365.972656 " fill-opacity="1" fill-rule="nonzero"/><path fill="#383838" d="M 553.117188 365.972656 C 552.941406 365.972656 552.804688 365.832031 552.804688 365.660156 L 552.804688 355.5625 C 552.804688 355.394531 552.941406 355.25 553.117188 355.25 C 553.285156 355.25 553.429688 355.394531 553.429688 355.5625 L 553.429688 365.660156 C 553.429688 365.832031 553.285156 365.972656 553.117188 365.972656 " fill-opacity="1" fill-rule="nonzero"/><path fill="#383838" d="M 560.332031 365.972656 C 560.15625 365.972656 560.019531 365.832031 560.019531 365.660156 L 560.019531 355.5625 C 560.019531 355.394531 560.15625 355.25 560.332031 355.25 C 560.503906 355.25 560.644531 355.394531 560.644531 355.5625 L 560.644531 365.660156 C 560.644531 365.832031 560.503906 365.972656 560.332031 365.972656 " fill-opacity="1" fill-rule="nonzero"/><path fill="#383838" d="M 567.542969 365.972656 C 567.375 365.972656 567.230469 365.832031 567.230469 365.660156 L 567.230469 355.5625 C 567.230469 355.394531 567.375 355.25 567.542969 355.25 C 567.71875 355.25 567.863281 355.394531 567.863281 355.5625 L 567.863281 365.660156 C 567.863281 365.832031 567.71875 365.972656 567.542969 365.972656 " fill-opacity="1" fill-rule="nonzero"/><path fill="#383838" d="M 574.761719 365.972656 C 574.585938 365.972656 574.449219 365.832031 574.449219 365.660156 L 574.449219 355.5625 C 574.449219 355.394531 574.585938 355.25 574.761719 355.25 C 574.929688 355.25 575.074219 355.394531 575.074219 355.5625 L 575.074219 365.660156 C 575.074219 365.832031 574.929688 365.972656 574.761719 365.972656 " fill-opacity="1" fill-rule="nonzero"/><path fill="#383838" d="M 581.976562 365.972656 C 581.800781 365.972656 581.664062 365.832031 581.664062 365.660156 L 581.664062 355.5625 C 581.664062 355.394531 581.800781 355.25 581.976562 355.25 C 582.148438 355.25 582.289062 355.394531 582.289062 355.5625 L 582.289062 365.660156 C 582.289062 365.832031 582.148438 365.972656 581.976562 365.972656 " fill-opacity="1" fill-rule="nonzero"/><path fill="#383838" d="M 589.1875 365.972656 C 589.019531 365.972656 588.875 365.832031 588.875 365.660156 L 588.875 355.5625 C 588.875 355.394531 589.019531 355.25 589.1875 355.25 C 589.363281 355.25 589.507812 355.394531 589.507812 355.5625 L 589.507812 365.660156 C 589.507812 365.832031 589.363281 365.972656 589.1875 365.972656 " fill-opacity="1" fill-rule="nonzero"/><path fill="#383838" d="M 596.402344 365.972656 C 596.234375 365.972656 596.09375 365.832031 596.09375 365.660156 L 596.09375 355.5625 C 596.09375 355.394531 596.234375 355.25 596.402344 355.25 C 596.574219 355.25 596.71875 355.394531 596.71875 355.5625 L 596.71875 365.660156 C 596.71875 365.832031 596.574219 365.972656 596.402344 365.972656 " fill-opacity="1" fill-rule="nonzero"/><path fill="#383838" d="M 603.621094 365.972656 C 603.445312 365.972656 603.308594 365.832031 603.308594 365.660156 L 603.308594 355.5625 C 603.308594 355.394531 603.445312 355.25 603.621094 355.25 C 603.789062 355.25 603.933594 355.394531 603.933594 355.5625 L 603.933594 365.660156 C 603.933594 365.832031 603.789062 365.972656 603.621094 365.972656 " fill-opacity="1" fill-rule="nonzero"/><path fill="#383838" d="M 610.832031 365.972656 C 610.660156 365.972656 610.519531 365.832031 610.519531 365.660156 L 610.519531 355.5625 C 610.519531 355.394531 610.660156 355.25 610.832031 355.25 C 611.007812 355.25 611.144531 355.394531 611.144531 355.5625 L 611.144531 365.660156 C 611.144531 365.832031 611.007812 365.972656 610.832031 365.972656 " fill-opacity="1" fill-rule="nonzero"/><path fill="#383838" d="M 618.046875 365.972656 C 617.878906 365.972656 617.734375 365.832031 617.734375 365.660156 L 617.734375 355.5625 C 617.734375 355.394531 617.878906 355.25 618.046875 355.25 C 618.222656 355.25 618.359375 355.394531 618.359375 355.5625 L 618.359375 365.660156 C 618.359375 365.832031 618.222656 365.972656 618.046875 365.972656 " fill-opacity="1" fill-rule="nonzero"/><path fill="#383838" d="M 625.265625 365.972656 C 625.089844 365.972656 624.953125 365.832031 624.953125 365.660156 L 624.953125 355.5625 C 624.953125 355.394531 625.089844 355.25 625.265625 355.25 C 625.433594 355.25 625.578125 355.394531 625.578125 355.5625 L 625.578125 365.660156 C 625.578125 365.832031 625.433594 365.972656 625.265625 365.972656 " fill-opacity="1" fill-rule="nonzero"/><path fill="#383838" d="M 632.476562 365.972656 C 632.304688 365.972656 632.167969 365.832031 632.167969 365.660156 L 632.167969 355.5625 C 632.167969 355.394531 632.304688 355.25 632.476562 355.25 C 632.652344 355.25 632.789062 355.394531 632.789062 355.5625 L 632.789062 365.660156 C 632.789062 365.832031 632.652344 365.972656 632.476562 365.972656 " fill-opacity="1" fill-rule="nonzero"/><path fill="#383838" d="M 639.265625 365.972656 C 639.089844 365.972656 638.949219 365.832031 638.949219 365.660156 L 638.949219 355.5625 C 638.949219 355.394531 639.089844 355.25 639.265625 355.25 C 639.433594 355.25 639.578125 355.394531 639.578125 355.5625 L 639.578125 365.660156 C 639.578125 365.832031 639.433594 365.972656 639.265625 365.972656 " fill-opacity="1" fill-rule="nonzero"/><path fill="#383838" d="M 743.078125 295.714844 C 742.953125 295.714844 742.84375 295.605469 742.84375 295.476562 L 742.84375 285.167969 C 742.84375 285.042969 742.953125 284.9375 743.078125 284.9375 C 743.207031 284.9375 743.3125 285.042969 743.3125 285.167969 L 743.3125 295.476562 C 743.3125 295.605469 743.207031 295.714844 743.078125 295.714844 " fill-opacity="1" fill-rule="nonzero"/><path fill="#383838" d="M 742.8125 298.144531 L 737.304688 298.144531 C 737.179688 298.144531 737.070312 298.042969 737.070312 297.914062 C 737.070312 297.78125 737.179688 297.675781 737.304688 297.675781 L 742.8125 297.675781 C 742.945312 297.675781 743.050781 297.78125 743.050781 297.914062 C 743.050781 298.042969 742.945312 298.144531 742.8125 298.144531 " fill-opacity="1" fill-rule="nonzero"/><path fill="#383838" d="M 742.8125 329.242188 L 737.304688 329.242188 C 737.179688 329.242188 737.070312 329.136719 737.070312 329.003906 C 737.070312 328.875 737.179688 328.773438 737.304688 328.773438 L 742.8125 328.773438 C 742.945312 328.773438 743.050781 328.875 743.050781 329.003906 C 743.050781 329.136719 742.945312 329.242188 742.8125 329.242188 " fill-opacity="1" fill-rule="nonzero"/><path fill="#383838" d="M 739.917969 329.242188 C 739.785156 329.242188 739.679688 329.136719 739.679688 329.003906 L 739.679688 297.914062 C 739.679688 297.78125 739.785156 297.675781 739.917969 297.675781 C 740.042969 297.675781 740.148438 297.78125 740.148438 297.914062 L 740.148438 329.003906 C 740.148438 329.136719 740.042969 329.242188 739.917969 329.242188 " fill-opacity="1" fill-rule="nonzero"/><path fill="#383838" d="M 747.898438 360.847656 C 747.765625 360.847656 747.660156 360.742188 747.660156 360.609375 L 747.660156 340.230469 L 743.25 340.230469 C 743.121094 340.230469 743.015625 340.125 743.015625 340 C 743.015625 339.871094 743.121094 339.761719 743.25 339.761719 L 748.128906 339.761719 L 748.128906 360.609375 C 748.128906 360.742188 748.027344 360.847656 747.898438 360.847656 " fill-opacity="1" fill-rule="nonzero"/><path fill="#383838" d="M 742.8125 301.390625 L 739.167969 301.390625 C 739.035156 301.390625 738.929688 301.285156 738.929688 301.15625 C 738.929688 301.023438 739.035156 300.925781 739.167969 300.925781 L 742.8125 300.925781 C 742.945312 300.925781 743.050781 301.023438 743.050781 301.15625 C 743.050781 301.285156 742.945312 301.390625 742.8125 301.390625 " fill-opacity="1" fill-rule="nonzero"/><path fill="#383838" d="M 742.8125 309.675781 L 739.167969 309.675781 C 739.035156 309.675781 738.929688 309.570312 738.929688 309.445312 C 738.929688 309.3125 739.035156 309.207031 739.167969 309.207031 L 742.8125 309.207031 C 742.945312 309.207031 743.050781 309.3125 743.050781 309.445312 C 743.050781 309.570312 742.945312 309.675781 742.8125 309.675781 " fill-opacity="1" fill-rule="nonzero"/><path fill="#383838" d="M 742.8125 317.964844 L 739.167969 317.964844 C 739.035156 317.964844 738.929688 317.859375 738.929688 317.730469 C 738.929688 317.597656 739.035156 317.5 739.167969 317.5 L 742.8125 317.5 C 742.945312 317.5 743.050781 317.597656 743.050781 317.730469 C 743.050781 317.859375 742.945312 317.964844 742.8125 317.964844 " fill-opacity="1" fill-rule="nonzero"/><path fill="#383838" d="M 742.8125 326.25 L 739.167969 326.25 C 739.035156 326.25 738.929688 326.144531 738.929688 326.019531 C 738.929688 325.886719 739.035156 325.78125 739.167969 325.78125 L 742.8125 325.78125 C 742.945312 325.78125 743.050781 325.886719 743.050781 326.019531 C 743.050781 326.144531 742.945312 326.25 742.8125 326.25 " fill-opacity="1" fill-rule="nonzero"/><path fill="#474747" d="M 743.175781 358.894531 L 741.601562 358.894531 L 742.8125 295.476562 L 743.4375 295.476562 L 743.175781 358.894531 " fill-opacity="1" fill-rule="nonzero"/><path fill="#474747" d="M 742.089844 333.273438 L 716.167969 360.609375 L 742.519531 360.609375 Z M 742.089844 333.273438 " fill-opacity="1" fill-rule="nonzero"/><path fill="#960000" d="M 800.410156 429.980469 C 759.925781 440.527344 752.957031 405.878906 752.957031 405.878906 L 782.5625 405.878906 C 782.5625 405.878906 781.21875 411.738281 785.636719 413.851562 C 790.042969 415.960938 801.085938 418.074219 800.410156 429.980469 " fill-opacity="1" fill-rule="nonzero"/><g clip-path="url(#ef635b06ce)"><path fill="#960000" d="M 793.816406 348.683594 C 793.816406 348.683594 787.632812 371.449219 783.34375 397.246094 C 782.839844 400.226562 782.5625 403.128906 782.5625 405.886719 L 9.394531 405.886719 L 9.394531 365.660156 L 198.511719 365.683594 L 574.320312 365.683594 C 574.320312 365.683594 714.03125 348.683594 735.789062 348.683594 L 793.816406 348.683594 " fill-opacity="1" fill-rule="nonzero"/></g><g clip-path="url(#8854631307)"><path fill="#870000" d="M 783.34375 395.214844 C 782.839844 398.902344 782.5625 402.480469 782.5625 405.886719 L 9.394531 405.886719 L 9.394531 395.214844 L 783.34375 395.214844 " fill-opacity="1" fill-rule="nonzero"/></g><path fill="#4f0000" d="M 774.738281 364.222656 C 774.738281 367.964844 771.703125 371 767.960938 371 C 764.214844 371 761.179688 367.964844 761.179688 364.222656 C 761.179688 360.472656 764.214844 357.445312 767.960938 357.445312 C 771.703125 357.445312 774.738281 360.472656 774.738281 364.222656 " fill-opacity="1" fill-rule="nonzero"/><path fill="#0f0f0f" d="M 771.902344 364.222656 C 771.902344 366.402344 770.140625 368.164062 767.960938 368.164062 C 765.777344 368.164062 764.015625 366.402344 764.015625 364.222656 C 764.015625 362.042969 765.777344 360.273438 767.960938 360.273438 C 770.140625 360.273438 771.902344 362.042969 771.902344 364.222656 " fill-opacity="1" fill-rule="nonzero"/><path fill="#030001" d="M 769.410156 360.546875 L 769.054688 368.007812 L 768.8125 373.230469 L 767.113281 373.230469 L 766.863281 368.007812 L 766.507812 360.546875 C 766.964844 360.375 767.449219 360.273438 767.960938 360.273438 C 768.476562 360.273438 768.96875 360.367188 769.410156 360.546875 " fill-opacity="1" fill-rule="nonzero"/><path fill="#030001" d="M 767.070312 370.574219 L 764.675781 369.882812 C 764.675781 369.882812 764.675781 367.25 762.0625 365.238281 L 762.0625 371.042969 L 767.070312 372.550781 L 767.070312 370.574219 " fill-opacity="1" fill-rule="nonzero"/><path fill="#030001" d="M 768.847656 370.574219 L 771.242188 369.882812 C 771.242188 369.882812 771.242188 367.25 773.851562 365.238281 L 773.851562 371.042969 L 768.847656 372.550781 L 768.847656 370.574219 " fill-opacity="1" fill-rule="nonzero"/><path fill="#2e2929" d="M 747.429688 440.277344 C 747.429688 444.53125 743.980469 447.980469 739.730469 447.980469 C 736.78125 447.980469 734.214844 446.316406 732.929688 443.875 C 732.355469 442.800781 732.035156 441.578125 732.035156 440.277344 C 732.035156 436.023438 735.476562 432.574219 739.730469 432.574219 C 742.128906 432.574219 744.257812 433.667969 745.667969 435.378906 C 746.765625 436.714844 747.429688 438.421875 747.429688 440.277344 " fill-opacity="1" fill-rule="nonzero"/><path fill="#a60000" d="M 611.421875 405.878906 L 184.265625 405.878906 C 231.546875 410.828125 309.421875 414.0625 397.492188 414.070312 L 398.1875 414.070312 C 486.257812 414.0625 564.132812 410.828125 611.421875 405.878906 " fill-opacity="1" fill-rule="nonzero"/><path fill="#171717" d="M 746.378906 440.277344 C 746.378906 443.949219 743.402344 446.925781 739.730469 446.925781 C 737.179688 446.925781 734.96875 445.492188 733.859375 443.386719 C 733.359375 442.457031 733.085938 441.402344 733.085938 440.277344 C 733.085938 436.601562 736.0625 433.628906 739.730469 433.628906 C 741.796875 433.628906 743.636719 434.566406 744.855469 436.046875 C 745.804688 437.203125 746.378906 438.671875 746.378906 440.277344 " fill-opacity="1" fill-rule="nonzero"/><path fill="#1a1a1a" d="M 745.625 439.160156 C 745.625 442.824219 742.652344 445.804688 738.980469 445.804688 C 736.914062 445.804688 735.070312 444.863281 733.859375 443.386719 C 733.359375 442.457031 733.085938 441.402344 733.085938 440.277344 C 733.085938 436.601562 736.0625 433.628906 739.730469 433.628906 C 741.796875 433.628906 743.636719 434.566406 744.855469 436.046875 C 745.347656 436.976562 745.625 438.035156 745.625 439.160156 " fill-opacity="1" fill-rule="nonzero"/><path fill="#3b3b3b" d="M 738.113281 436.234375 C 738.78125 436.910156 739.867188 439.078125 739.199219 439.746094 C 738.53125 440.414062 736.355469 439.332031 735.6875 438.660156 C 735.019531 437.992188 735.019531 436.910156 735.6875 436.234375 C 736.355469 435.566406 737.445312 435.566406 738.113281 436.234375 " fill-opacity="1" fill-rule="nonzero"/><path fill="#3b3b3b" d="M 741.339844 444.320312 C 740.671875 443.652344 739.589844 441.476562 740.261719 440.808594 C 740.929688 440.140625 743.09375 441.226562 743.769531 441.894531 C 744.4375 442.5625 744.4375 443.652344 743.769531 444.320312 C 743.09375 444.988281 742.015625 444.988281 741.339844 444.320312 " fill-opacity="1" fill-rule="nonzero"/><path fill="#3b3b3b" d="M 743.769531 438.660156 C 743.09375 439.332031 740.929688 440.414062 740.261719 439.746094 C 739.589844 439.078125 740.671875 436.910156 741.339844 436.234375 C 742.015625 435.566406 743.09375 435.566406 743.769531 436.234375 C 744.4375 436.910156 744.4375 437.992188 743.769531 438.660156 " fill-opacity="1" fill-rule="nonzero"/><path fill="#3b3b3b" d="M 735.6875 441.894531 C 736.355469 441.226562 738.53125 440.140625 739.199219 440.808594 C 739.867188 441.476562 738.78125 443.652344 738.113281 444.320312 C 737.445312 444.988281 736.355469 444.988281 735.6875 444.320312 C 735.019531 443.652344 735.019531 442.5625 735.6875 441.894531 " fill-opacity="1" fill-rule="nonzero"/><path fill="#545454" d="M 740.261719 439.746094 C 740.546875 440.039062 740.546875 440.515625 740.261719 440.808594 C 739.964844 441.101562 739.492188 441.101562 739.199219 440.808594 C 738.90625 440.515625 738.90625 440.039062 739.199219 439.746094 C 739.492188 439.457031 739.964844 439.457031 740.261719 439.746094 " fill-opacity="1" fill-rule="nonzero"/><path fill="#3b3b3b" d="M 738.113281 436.234375 C 738.78125 436.910156 739.867188 439.078125 739.199219 439.746094 C 738.53125 440.414062 736.355469 439.332031 735.6875 438.660156 C 735.019531 437.992188 735.019531 436.910156 735.6875 436.234375 C 736.355469 435.566406 737.445312 435.566406 738.113281 436.234375 " fill-opacity="1" fill-rule="nonzero"/><path fill="#3b3b3b" d="M 741.339844 444.320312 C 740.671875 443.652344 739.589844 441.476562 740.261719 440.808594 C 740.929688 440.140625 743.09375 441.226562 743.769531 441.894531 C 744.4375 442.5625 744.4375 443.652344 743.769531 444.320312 C 743.09375 444.988281 742.015625 444.988281 741.339844 444.320312 " fill-opacity="1" fill-rule="nonzero"/><path fill="#3b3b3b" d="M 743.769531 438.660156 C 743.09375 439.332031 740.929688 440.414062 740.261719 439.746094 C 739.589844 439.078125 740.671875 436.910156 741.339844 436.234375 C 742.015625 435.566406 743.09375 435.566406 743.769531 436.234375 C 744.4375 436.910156 744.4375 437.992188 743.769531 438.660156 " fill-opacity="1" fill-rule="nonzero"/><path fill="#3b3b3b" d="M 735.6875 441.894531 C 736.355469 441.226562 738.53125 440.140625 739.199219 440.808594 C 739.867188 441.476562 738.78125 443.652344 738.113281 444.320312 C 737.445312 444.988281 736.355469 444.988281 735.6875 444.320312 C 735.019531 443.652344 735.019531 442.5625 735.6875 441.894531 " fill-opacity="1" fill-rule="nonzero"/><path fill="#545454" d="M 740.261719 439.746094 C 740.546875 440.039062 740.546875 440.515625 740.261719 440.808594 C 739.964844 441.101562 739.492188 441.101562 739.199219 440.808594 C 738.90625 440.515625 738.90625 440.039062 739.199219 439.746094 C 739.492188 439.457031 739.964844 439.457031 740.261719 439.746094 " fill-opacity="1" fill-rule="nonzero"/><g clip-path="url(#4bb62e5649)"><path fill="#1c1c1c" d="M 800.410156 429.980469 C 799.742188 441.882812 795.328125 458.679688 745.710938 458.679688 L 145.140625 458.679688 C 145.140625 417.125 41.925781 420.277344 41.925781 420.277344 C 27.398438 420.277344 15.4375 420.277344 15.4375 420.277344 C 15.4375 420.277344 9.394531 421.042969 9.394531 405.878906 L 782.558594 405.878906 C 782.558594 405.878906 781.21875 411.738281 785.636719 413.851562 C 790.042969 415.960938 801.078125 418.074219 800.410156 429.980469 " fill-opacity="1" fill-rule="nonzero"/></g><g clip-path="url(#8f3716d1f8)"><path fill="#141414" d="M 73.019531 458.679688 L 745.710938 458.679688 C 795.328125 458.679688 799.742188 441.882812 800.410156 429.980469 C 800.484375 428.621094 800.410156 427.390625 800.210938 426.277344 C 800.179688 426.109375 800.148438 425.9375 800.113281 425.777344 C 799.988281 425.195312 799.824219 424.644531 799.625 424.128906 C 799.566406 423.964844 799.503906 423.808594 799.4375 423.652344 C 799.363281 423.464844 799.289062 423.296875 799.199219 423.121094 C 799.136719 422.992188 799.070312 422.859375 799 422.726562 C 798.582031 421.929688 798.074219 421.210938 797.519531 420.558594 C 797.800781 421.785156 797.917969 423.152344 797.832031 424.695312 C 797.1875 436.152344 792.9375 452.320312 745.179688 452.320312 L 72.179688 452.320312 L 73.019531 458.679688 " fill-opacity="1" fill-rule="nonzero"/></g><path fill="#292929" d="M 660.597656 405.886719 L 134.78125 405.886719 C 192.984375 413.792969 288.84375 418.960938 397.269531 418.972656 L 398.113281 418.972656 C 506.53125 418.960938 602.390625 413.792969 660.597656 405.886719 " fill-opacity="1" fill-rule="nonzero"/><path fill="#383838" d="M 611.421875 405.886719 L 184.265625 405.886719 C 231.546875 409.578125 309.421875 411.988281 397.492188 411.996094 L 398.1875 411.996094 C 486.257812 411.988281 564.132812 409.578125 611.421875 405.886719 " fill-opacity="1" fill-rule="nonzero"/></svg>